<?xml version="1.0" encoding="UTF-8" standalone="no"?>
<svg
   xmlns:dc="http://purl.org/dc/elements/1.1/"
   xmlns:cc="http://creativecommons.org/ns#"
   xmlns:rdf="http://www.w3.org/1999/02/22-rdf-syntax-ns#"
   xmlns:svg="http://www.w3.org/2000/svg"
   xmlns="http://www.w3.org/2000/svg"
   xmlns:sodipodi="http://sodipodi.sourceforge.net/DTD/sodipodi-0.dtd"
   xmlns:inkscape="http://www.inkscape.org/namespaces/inkscape"
   style="height: 16px; width: 16px;"
   width="16px"
   height="16px"
   viewBox="0 0 512 512"
   version="1.1"
   id="svg8"
   sodipodi:docname="audio-track.svg"
   inkscape:version="0.92.5 (2060ec1f9f, 2020-04-08)">
  <metadata
     id="metadata14">
    <rdf:RDF>
      <cc:Work
         rdf:about="">
        <dc:format>image/svg+xml</dc:format>
        <dc:type
           rdf:resource="http://purl.org/dc/dcmitype/StillImage" />
        <dc:title />
      </cc:Work>
    </rdf:RDF>
  </metadata>
  <defs
     id="defs12" />
  <sodipodi:namedview
     pagecolor="#ffffff"
     bordercolor="#666666"
     borderopacity="1"
     objecttolerance="10"
     gridtolerance="10"
     guidetolerance="10"
     inkscape:pageopacity="0"
     inkscape:pageshadow="2"
     inkscape:window-width="1108"
     inkscape:window-height="725"
     id="namedview10"
     showgrid="false"
     inkscape:zoom="14.75"
     inkscape:cx="-4.5423729"
     inkscape:cy="8"
     inkscape:window-x="549"
     inkscape:window-y="400"
     inkscape:window-maximized="0"
     inkscape:current-layer="g838" />
  <path
     d="M0 0h512v512H0z"
     fill="#000000"
     fill-opacity="0"
     style="--darkreader-inline-fill: #000000;"
     data-darkreader-inline-fill=""
     id="path2" />
  <g
     class=""
     style="stroke:#000000;stroke-opacity:1;opacity:1;stroke-width:4.192;stroke-miterlimit:4;stroke-dasharray:none"
     transform="translate(0,0)"
     id="g6">
    <path
       d="M18 112v39h38v-39zm102 0v39h48v-39zm112 0v39h48v-39zm112 0v39h48v-39zm112 0v39h38v-39zM18 169v30h476v-30zm0 48v78h38v-78zm102 0v78h48v-78zm112 0v78h48v-78zm112 0v78h48v-78zm112 0v78h38v-78zM18 313v30h476v-30zm0 48v39h38v-39zm102 0v39h48v-39zm112 0v39h48v-39zm112 0v39h48v-39zm112 0v39h38v-39z"
       fill="#76df76"
       fill-opacity="1"
       style="stroke-width:4.192;stroke-miterlimit:4;stroke-dasharray:none"
       data-darkreader-inline-fill=""
       id="path4" />
  </g>
  <g
     id="g838"
     transform="matrix(0.7,0,0,0.7,180.5223,209.5228)"
     style="stroke:#000000;stroke-opacity:1;stroke-width:5.98857143;stroke-miterlimit:4;stroke-dasharray:none">
    <g
       id="g825"
       class=""
       style="stroke:#000000;stroke-opacity:1;stroke-width:5.98857143;stroke-miterlimit:4;stroke-dasharray:none">
      <path
         id="path823"
         data-darkreader-inline-fill=""
         style="fill:#48baff;fill-opacity:1;stroke:#000000;stroke-opacity:1;stroke-width:5.98857143;stroke-miterlimit:4;stroke-dasharray:none"
         d="m 275.5,96 -96,96 h -96 v 128 h 96 l 96,96 z m 51.46,27.668 -4.66,17.387 c 52.066,13.95 88.2,61.04 88.2,114.945 0,53.904 -36.134,100.994 -88.2,114.945 l 4.66,17.387 C 386.81,372.295 428.5,317.962 428.5,256 428.5,194.037 386.81,139.705 326.96,123.668 Z m -12.425,46.365 -4.658,17.387 c 31.083,8.328 52.623,36.402 52.623,68.58 0,32.178 -21.54,60.252 -52.623,68.58 l 4.658,17.387 C 353.402,331.552 380.5,296.237 380.5,256 c 0,-40.238 -27.098,-75.552 -65.965,-85.967 z m -12.424,46.363 -4.657,17.387 C 307.55,236.49 314.5,245.547 314.5,256 c 0,10.453 -6.95,19.51 -17.047,22.217 l 4.658,17.387 c 17.884,-4.792 30.39,-21.09 30.39,-39.604 0,-18.513 -12.506,-34.812 -30.39,-39.604 z"
         inkscape:connector-curvature="0" />
    </g>
  </g>
</svg>
