<?xml version="1.0" encoding="UTF-8" standalone="no"?>
<svg
   xmlns:dc="http://purl.org/dc/elements/1.1/"
   xmlns:cc="http://creativecommons.org/ns#"
   xmlns:rdf="http://www.w3.org/1999/02/22-rdf-syntax-ns#"
   xmlns:svg="http://www.w3.org/2000/svg"
   xmlns="http://www.w3.org/2000/svg"
   xmlns:sodipodi="http://sodipodi.sourceforge.net/DTD/sodipodi-0.dtd"
   xmlns:inkscape="http://www.inkscape.org/namespaces/inkscape"
   style="height: 16px; width: 16px;"
   width="16px"
   height="16px"
   viewBox="0 0 512 512"
   version="1.1"
   id="svg8"
   sodipodi:docname="cardboard-box.svg"
   inkscape:version="0.92.5 (2060ec1f9f, 2020-04-08)">
  <metadata
     id="metadata14">
    <rdf:RDF>
      <cc:Work
         rdf:about="">
        <dc:format>image/svg+xml</dc:format>
        <dc:type
           rdf:resource="http://purl.org/dc/dcmitype/StillImage" />
      </cc:Work>
    </rdf:RDF>
  </metadata>
  <defs
     id="defs12" />
  <sodipodi:namedview
     pagecolor="#ffffff"
     bordercolor="#666666"
     borderopacity="1"
     objecttolerance="10"
     gridtolerance="10"
     guidetolerance="10"
     inkscape:pageopacity="0"
     inkscape:pageshadow="2"
     inkscape:window-width="1131"
     inkscape:window-height="792"
     id="namedview10"
     showgrid="false"
     inkscape:zoom="14.75"
     inkscape:cx="8"
     inkscape:cy="8"
     inkscape:window-x="526"
     inkscape:window-y="281"
     inkscape:window-maximized="0"
     inkscape:current-layer="svg8" />
  <path
     d="M0 0h512v512H0z"
     fill="#000000"
     fill-opacity="0"
     style="--darkreader-inline-fill: #000000;"
     data-darkreader-inline-fill=""
     id="path2" />
  <g
     class=""
     style="stroke:#000000;stroke-opacity:1;opacity:1;stroke-width:4.192;stroke-miterlimit:4;stroke-dasharray:none"
     transform="translate(0,0)"
     id="g6">
    <path
       d="M185.424 52.607L30.404 130.04l55.375 55.317 155.017-77.43-55.373-55.32zm141.152 0l-55.373 55.32 155.018 77.43 55.376-55.316-155.02-77.433zM256 120.45l-9 4.497v142.715l9 4.496 9-4.496V124.947l-9-4.496zM86.482 207.605l-57.59 71.917 139.545 77.45 72.358-72.286-154.313-77.08zm339.036 0l-154.313 77.08 72.358 72.287 139.544-77.45-57.59-71.916zM247 303.93l-75.436 75.36-78.562-43.6v44.058L247 456.67V303.93zm18 0v152.74l153.998-76.922v-44.06l-78.562 43.603L265 303.93z"
       fill="#f8e700"
       fill-opacity="1"
       style="stroke:#000000;stroke-opacity:1;stroke-width:4.192;stroke-miterlimit:4;stroke-dasharray:none"
       data-darkreader-inline-fill=""
       id="path4" />
  </g>
</svg>
