<?xml version="1.0" encoding="UTF-8" standalone="no"?>
<svg
   xmlns:dc="http://purl.org/dc/elements/1.1/"
   xmlns:cc="http://creativecommons.org/ns#"
   xmlns:rdf="http://www.w3.org/1999/02/22-rdf-syntax-ns#"
   xmlns:svg="http://www.w3.org/2000/svg"
   xmlns="http://www.w3.org/2000/svg"
   xmlns:sodipodi="http://sodipodi.sourceforge.net/DTD/sodipodi-0.dtd"
   xmlns:inkscape="http://www.inkscape.org/namespaces/inkscape"
   style="height: 16; width: 16;"
   viewBox="0 0 512 512"
   width="16px"
   height="16px"
   version="1.1"
   id="svg8"
   sodipodi:docname="family-tree.svg"
   inkscape:version="0.92.5 (2060ec1f9f, 2020-04-08)">
  <metadata
     id="metadata14">
    <rdf:RDF>
      <cc:Work
         rdf:about="">
        <dc:format>image/svg+xml</dc:format>
        <dc:type
           rdf:resource="http://purl.org/dc/dcmitype/StillImage" />
      </cc:Work>
    </rdf:RDF>
  </metadata>
  <defs
     id="defs12" />
  <sodipodi:namedview
     pagecolor="#ffffff"
     bordercolor="#666666"
     borderopacity="1"
     objecttolerance="10"
     gridtolerance="10"
     guidetolerance="10"
     inkscape:pageopacity="0"
     inkscape:pageshadow="2"
     inkscape:window-width="1226"
     inkscape:window-height="1070"
     id="namedview10"
     showgrid="false"
     inkscape:zoom="0.4609375"
     inkscape:cx="256"
     inkscape:cy="256"
     inkscape:window-x="42"
     inkscape:window-y="0"
     inkscape:window-maximized="0"
     inkscape:current-layer="svg8" />
  <path
     d="M0 0h512v512H0z"
     fill="#0a0a0a"
     fill-opacity="0"
     style="--darkreader-inline-fill: #080808;"
     data-darkreader-inline-fill=""
     id="path2" />
  <g
     class=""
     transform="matrix(1,0,0,-1,0,512)"
     id="g6">
    <path
       d="M 25.01,49 V 95 H 103 V 49 Z M 153,49 v 46 h 78 V 49 Z m 128,0 v 46 h 78 V 49 Z m 128,0 v 46 h 78 V 49 Z M 55.01,113 v 64 H 119 v 46 h 18 v -46 h 64 v -64 h -18 v 46 H 73.01 V 113 Z M 311,113 v 64 h 64 v 46 h 18 v -46 h 64 v -64 h -18 v 46 H 329 V 113 Z M 89.01,241 v 46 H 167 V 241 Z M 345,241 v 46 h 78 v -46 z m -226,64 v 48 h 128 v 46 h 18 v -46 h 128 v -48 h -18 v 30 H 137 v -30 z m 98,112 v 46 h 78 v -46 z"
       style="fill:#f8e71c;fill-opacity:1"
       data-darkreader-inline-fill=""
       id="path4"
       inkscape:connector-curvature="0" />
  </g>
</svg>
