<?xml version="1.0" encoding="UTF-8" standalone="no"?>
<svg
   xmlns:dc="http://purl.org/dc/elements/1.1/"
   xmlns:cc="http://creativecommons.org/ns#"
   xmlns:rdf="http://www.w3.org/1999/02/22-rdf-syntax-ns#"
   xmlns:svg="http://www.w3.org/2000/svg"
   xmlns="http://www.w3.org/2000/svg"
   xmlns:sodipodi="http://sodipodi.sourceforge.net/DTD/sodipodi-0.dtd"
   xmlns:inkscape="http://www.inkscape.org/namespaces/inkscape"
   style="height: 16px; width: 16px;"
   width="16px"
   height="16px"
   viewBox="0 0 512 512"
   version="1.1"
   id="svg8"
   sodipodi:docname="files.svg"
   inkscape:version="0.92.5 (2060ec1f9f, 2020-04-08)">
  <metadata
     id="metadata14">
    <rdf:RDF>
      <cc:Work
         rdf:about="">
        <dc:format>image/svg+xml</dc:format>
        <dc:type
           rdf:resource="http://purl.org/dc/dcmitype/StillImage" />
      </cc:Work>
    </rdf:RDF>
  </metadata>
  <defs
     id="defs12" />
  <sodipodi:namedview
     pagecolor="#ffffff"
     bordercolor="#666666"
     borderopacity="1"
     objecttolerance="10"
     gridtolerance="10"
     guidetolerance="10"
     inkscape:pageopacity="0"
     inkscape:pageshadow="2"
     inkscape:window-width="999"
     inkscape:window-height="683"
     id="namedview10"
     showgrid="false"
     inkscape:zoom="14.75"
     inkscape:cx="-4.5423729"
     inkscape:cy="8"
     inkscape:window-x="42"
     inkscape:window-y="0"
     inkscape:window-maximized="0"
     inkscape:current-layer="g6" />
  <path
     d="M0 0h512v512H0z"
     fill="#000000"
     fill-opacity="0"
     style="--darkreader-inline-fill: #000000;"
     data-darkreader-inline-fill=""
     id="path2" />
  <g
     class=""
     style=""
     transform="translate(0,0)"
     id="g6">
    <path
       d="M146.217 28.218l-100.07 42.86 106.296 248.194 41.188-17.64-27.606-191.945-1.28-8.909 78.567-11.3-12.519-29.23c-16.682 3.773-28.871 3.449-47.402 21.062l-5.993 5.693-6.181-5.484c-18.118-16.072-20.828-36.566-25-53.301zm18.912.492c3.243 12.805 5.535 24.275 12.777 33.68 12.818-10.212 24.447-14.227 34.951-16.733-14.485-7.674-29.652-12.217-47.728-16.947zm127.746 71.826l-107.752 15.496 38.436 267.25 36.978-5.318 23.188-193.996 1.068-8.936 86.086 10.29-4.598-31.96c-17.092-.671-28.78-4.14-51.24 8.076l-7.26 3.95-4.552-6.899c-13.34-20.213-10.655-40.708-10.354-57.953zm18.139 5.367c-.182 13.21-.937 24.883 3.625 35.842 15.025-6.547 27.298-7.415 38.093-7.117-12.006-11.162-25.481-19.477-41.718-28.725zm-10.485 89.139l-32.043 268.092 172.77 20.648 24.598-205.793c-16.337-5.073-26.73-11.452-51.586-5.465l-8.034 1.936-2.61-7.84c-7.655-22.977.243-42.079 4.997-58.658zm124.225 22.799c-3.594 12.713-7.345 23.792-5.775 35.558 16.207-2.435 28.286-.097 38.636 2.985-8.708-13.889-19.571-25.409-32.861-38.543z"
       fill="#26a326"
       fill-opacity="1"
       style="fill-opacity:1"
       data-darkreader-inline-fill=""
       id="path4" />
  </g>
</svg>
