<?xml version="1.0" encoding="UTF-8" standalone="no"?>
<svg
   xmlns:dc="http://purl.org/dc/elements/1.1/"
   xmlns:cc="http://creativecommons.org/ns#"
   xmlns:rdf="http://www.w3.org/1999/02/22-rdf-syntax-ns#"
   xmlns:svg="http://www.w3.org/2000/svg"
   xmlns="http://www.w3.org/2000/svg"
   xmlns:sodipodi="http://sodipodi.sourceforge.net/DTD/sodipodi-0.dtd"
   xmlns:inkscape="http://www.inkscape.org/namespaces/inkscape"
   version="1.1"
   width="16px"
   height="16px"
viewBox="0 0 223 223"
   style="height: 16px; width: 16px;scale: 0.1;shape-rendering:geometricPrecision; text-rendering:geometricPrecision; image-rendering:optimizeQuality; fill-rule:evenodd; clip-rule:evenodd"
   id="svg10"
   sodipodi:docname="jaime_silhouette.svg"
   inkscape:version="0.92.5 (2060ec1f9f, 2020-04-08)">
  <metadata
     id="metadata16">
    <rdf:RDF>
      <cc:Work
         rdf:about="">
        <dc:format>image/svg+xml</dc:format>
        <dc:type
           rdf:resource="http://purl.org/dc/dcmitype/StillImage" />
      </cc:Work>
    </rdf:RDF>
  </metadata>
  <defs
     id="defs14" />
  <sodipodi:namedview
     pagecolor="#ffffff"
     bordercolor="#666666"
     borderopacity="1"
     objecttolerance="10"
     gridtolerance="10"
     guidetolerance="10"
     inkscape:pageopacity="0"
     inkscape:pageshadow="2"
     id="namedview12"
     showgrid="false"
     inkscape:window-maximized="0"
     inkscape:current-layer="svg10" />
  <g
     id="g4">
    <path
       style="opacity:1.0;fill:#f5c900;scaleX:0.1"
       d="M 49.5,-0.5 C 61.93419,-1.5574381 68.76158,12.216586 70.496948,22.673942 74.472176,43.436839 66.173725,64.451277 53.36435,80.571984 41.816513,96.991975 27.944294,115.50321 30.956313,136.77949 31.84949,142.60446 36.41075,154.2914 40.397652,154.16848 44.57499,140.43005 50.866574,127.33482 59,115.5 c -0.212783,-10.61795 11.711771,-13.64861 20.166244,-14.79551 10.73376,1.00728 9.089275,-7.988649 1.662515,-11.7621 C 75.199749,80.991543 76.939417,70.233061 76.49113,60.90786 62.738052,55.046517 80.356475,40.47455 81.386127,30.875265 82.563612,22.04337 92.239282,2.9523908 102.18436,12.775032 c 1.81124,12.104389 12.96158,-0.737888 19.88734,-1.301574 10.00383,0.178676 -4.79463,-15.1039413 2.03218,-9.0699117 C 125.57792,6.1443958 132.74371,14.328572 132.5,5.5 c 0.0914,8.068846 10.06326,4.673377 11.5258,4.3647232 4.06863,7.8650328 15.25893,-1.9302849 15.60316,8.6516538 1.08975,-2.926332 8.11846,4.527016 10.88221,6.884795 6.32092,8.442451 12.92407,18.303711 10.69175,29.313448 2.88398,5.976167 16.52446,13.100242 14.79639,16.999518 -2.53897,-3.411729 -20.5182,-8.422492 -13.34694,-0.566095 -7.68769,6.084063 16.7666,8.844885 9.04644,10.692016 -9.75042,-4.115431 -16.01765,2.893091 -14.48148,9.711057 C 177.23483,87.631988 169.57429,79.385248 173.5,87.5 c -6.14795,0.53352 -1.51473,20.84442 -5.88391,8.195992 -2.74443,-4.465618 -8.33523,3.784271 -10.83358,4.760648 -1.1919,10.15242 -5.96937,21.82602 -18.20883,20.04596 C 126.78779,121.76274 114.55784,118.52691 105,111.5 c 9.03945,8.29629 0.53789,27.74544 13.02306,31.22377 9.91447,1.90642 21.94268,-17.87897 27.61558,-3.30066 1.74734,6.34565 2.52534,23.76458 11.64847,13.14816 7.65354,-7.67022 6.27335,-27.5634 20.25941,-26.50188 12.50278,3.97596 12.05572,21.98759 0.67036,27.2284 -12.47237,3.34879 -16.49568,15.855 -26.76963,21.77065 -11.29867,-0.29116 -2.24988,-13.35568 -8.55685,-19.14633 -6.77612,-12.09061 -20.93527,-1.27325 -24.10994,7.64383 -1.34822,7.1452 1.11967,12.66528 -4.39282,17.92901 -1.37335,9.72249 -7.12791,16.57531 -14.0348,22.76263 -8.928506,3.47195 -15.083067,10.68707 -21.671587,17.10207 -3.925026,-1.43686 -0.199421,-8.55185 -7.639359,-6.58536 -4.121074,-5.75399 20.59255,-8.25963 8.404622,-11.37469 -12.309231,-7.45552 4.559551,-15.95561 10.485188,-21.48329 2.122348,-4.48688 -2.997793,-6.09085 3.872621,-6.83058 4.962831,-1.52943 6.489625,-8.87342 -0.444397,-4.44439 -8.85831,-1.8305 -12.558144,6.74972 -12.348525,13.16001 -10.310313,8.33647 -15.882937,-9.98454 -19.803899,-13.49156 -7.933024,3.45823 8.800651,12.91632 1.222584,18.76711 1.605028,4.85068 9.144128,19.39667 -2.117207,12.91114 -3.277703,-7.49293 -6.821042,-5.87636 -7.262718,1.31627 -2.226382,4.9473 -5.479595,19.43687 -12.949747,13.64277 6.521818,-11.34426 -10.072492,-20.38715 -6.347271,-32.57386 4.98967,-10.10304 8.55188,-22.2917 -1.428099,-31.17176 C 23.039717,144.24267 20.537244,130.9054 22.916504,118.60405 27.661589,91.117651 53.790606,74.222939 60.400028,47.484647 62.652629,37.461333 64.244885,24.506782 56.693679,16.378986 44.82985,8.9537437 57.143072,36.115524 42.650923,28.285555 34.04633,22.094741 38.587707,7.9532814 45.673979,2.1036438 46.850559,1.1013473 48.135386,0.22596428 49.5,-0.5 Z m 13,129 c -2.85501,6.91631 -4.352879,24.8078 -8.591605,25.06608 C 49.812966,144.24108 58.035538,135.85643 62.5,128.5 Z m 41,7 c -4.222965,-3.41475 -0.23839,-7.17876 0,0 z m 0,0 c 5.06092,3.01962 2.22302,11.03831 0.63655,2.44013 C 103.863,137.14375 103.71203,136.31337 103.5,135.5 Z m -47,23 c 5.786596,3.37965 1.652746,9.80956 0.03864,1.75758 z m 33,33 c 13.12345,2.54105 -8.213482,6.34513 0,0 z m -10,6 c 4.587762,-2.57096 4.117586,5.15036 0,0 z"
       id="path2"
       inkscape:connector-curvature="0" />
  </g>
  <g
     id="g8">
    <path
       style="opacity:0.004"
       fill="#feff37"
       d="M 177.5,37.5 C 178.833,38.1667 178.833,38.1667 177.5,37.5 Z"
       id="path6" />
  </g>
</svg>
