<?xml version="1.0" encoding="UTF-8" standalone="no"?>
<svg
   xmlns:dc="http://purl.org/dc/elements/1.1/"
   xmlns:cc="http://creativecommons.org/ns#"
   xmlns:rdf="http://www.w3.org/1999/02/22-rdf-syntax-ns#"
   xmlns:svg="http://www.w3.org/2000/svg"
   xmlns="http://www.w3.org/2000/svg"
   xmlns:sodipodi="http://sodipodi.sourceforge.net/DTD/sodipodi-0.dtd"
   xmlns:inkscape="http://www.inkscape.org/namespaces/inkscape"
   style="height: 16px; width: 16px;"
   width="16px"
   height="16px"
   viewBox="0 0 512 512"
   version="1.1"
   id="svg8"
   sodipodi:docname="ortho.svg"
   inkscape:version="0.92.5 (2060ec1f9f, 2020-04-08)">
  <metadata
     id="metadata14">
    <rdf:RDF>
      <cc:Work
         rdf:about="">
        <dc:format>image/svg+xml</dc:format>
        <dc:type
           rdf:resource="http://purl.org/dc/dcmitype/StillImage" />
        <dc:title />
      </cc:Work>
    </rdf:RDF>
  </metadata>
  <defs
     id="defs12" />
  <sodipodi:namedview
     pagecolor="#ffffff"
     bordercolor="#666666"
     borderopacity="1"
     objecttolerance="10"
     gridtolerance="10"
     guidetolerance="10"
     inkscape:pageopacity="0"
     inkscape:pageshadow="2"
     inkscape:window-width="1160"
     inkscape:window-height="1024"
     id="namedview10"
     showgrid="true"
     showguides="false"
     inkscape:zoom="29.5"
     inkscape:cx="0.66892046"
     inkscape:cy="11.554132"
     inkscape:window-x="42"
     inkscape:window-y="0"
     inkscape:window-maximized="0"
     inkscape:current-layer="svg8">
    <inkscape:grid
       type="xygrid"
       id="grid823" />
  </sodipodi:namedview>
  <path
     d="M0 0h512v512H0z"
     fill="#000000"
     fill-opacity="0"
     style="--darkreader-inline-fill: #000000;"
     data-darkreader-inline-fill=""
     id="path2" />
  <path
     id="rect827-1-81"
     style="opacity:0.98999999;fill:none;fill-opacity:1;stroke:#48baff;stroke-width:14.112;stroke-miterlimit:4;stroke-dasharray:none;stroke-opacity:1"
     d="m 416,416 h 64 v 64 h -64 z m 0,-64 h 64 v 64 h -64 z m 0,-64 h 64 v 64 h -64 z m 0,-64 h 64 v 64 h -64 z m 0,-64 h 64 v 64 h -64 z m 0,-64 h 64 v 64 h -64 z m 0,-64 h 64 v 64 h -64 z m -64,384 h 64 v 64 h -64 z m 0,-64 h 64 v 64 h -64 z m 0,-64 h 64 v 64 h -64 z m 0,-64 h 64 v 64 h -64 z m 0,-64 h 64 v 64 h -64 z m 0,-64 h 64 v 64 h -64 z m 0,-64 h 64 v 64 h -64 z m -64,384 h 64 v 64 h -64 z m 0,-64 h 64 v 64 h -64 z m 0,-64 h 64 v 64 h -64 z m 0,-64 h 64 v 64 h -64 z m 0,-64 h 64 v 64 h -64 z m 0,-64 h 64 v 64 h -64 z m 0,-64 h 64 v 64 h -64 z m -64,384 h 64 v 64 h -64 z m 0,-64 h 64 v 64 h -64 z m 0,-64 h 64 v 64 h -64 z m 0,-64 h 64 v 64 h -64 z m 0,-64 h 64 v 64 h -64 z m 0,-64 h 64 v 64 h -64 z m 0,-64 h 64 v 64 h -64 z m -64,384 h 64 v 64 h -64 z m 0,-64 h 64 v 64 h -64 z m 0,-64 h 64 v 64 h -64 z m 0,-64 h 64 v 64 h -64 z m 0,-64 h 64 v 64 h -64 z m 0,-64 h 64 v 64 h -64 z m 0,-64 h 64 V 96 H 160 Z M 96,416 h 64 v 64 H 96 Z m 0,-64 h 64 v 64 H 96 Z m 0,-64 h 64 v 64 H 96 Z m 0,-64 h 64 v 64 H 96 Z m 0,-64 h 64 v 64 H 96 Z m 0,-64 h 64 v 64 H 96 Z m 0,-64 h 64 V 96 H 96 Z M 32,416 h 64 v 64 H 32 Z m 0,-64 h 64 v 64 H 32 Z m 0,-64 h 64 v 64 H 32 Z m 0,-64 h 64 v 64 H 32 Z m 0,-64 h 64 v 64 H 32 Z m 0,-64 h 64 v 64 H 32 Z M 32,32 H 96 V 96 H 32 Z" />
</svg>
