<svg style="height: 16px; width: 16px;" width="16px" height="16px" xmlns="http://www.w3.org/2000/svg" viewBox="0 0 512 512"><path d="M0 0h512v512H0z" fill="#000000" fill-opacity="0" style="--darkreader-inline-fill: #000000;" data-darkreader-inline-fill=""></path><g class="" style="stroke:#000000;stroke-opacity:1;opacity:1;stroke-width:4.192;stroke-miterlimit:4;stroke-dasharray:none" transform="translate(0,0)"><path d="M18 112v39h38v-39zm102 0v39h48v-39zm112 0v39h48v-39zm112 0v39h48v-39zm112 0v39h38v-39zM18 169v30h476v-30zm0 48v78h38v-78zm102 0v78h48v-78zm112 0v78h48v-78zm112 0v78h48v-78zm112 0v78h38v-78zM18 313v30h476v-30zm0 48v39h38v-39zm102 0v39h48v-39zm112 0v39h48v-39zm112 0v39h48v-39zm112 0v39h38v-39z" fill="#76df76" fill-opacity="1" style="--darkreader-inline-fill: #8b8104;" data-darkreader-inline-fill=""></path></g></svg>
