<?xml version="1.0" encoding="UTF-8" standalone="no"?>
<svg
   xmlns:dc="http://purl.org/dc/elements/1.1/"
   xmlns:cc="http://creativecommons.org/ns#"
   xmlns:rdf="http://www.w3.org/1999/02/22-rdf-syntax-ns#"
   xmlns:svg="http://www.w3.org/2000/svg"
   xmlns="http://www.w3.org/2000/svg"
   xmlns:sodipodi="http://sodipodi.sourceforge.net/DTD/sodipodi-0.dtd"
   xmlns:inkscape="http://www.inkscape.org/namespaces/inkscape"
   style="height: 32px; width: 32px;"
   width="32px"
   height="32px"
   viewBox="0 0 512 512"
   version="1.1"
   id="svg8"
   sodipodi:docname="sun-cloud.svg"
   inkscape:version="0.92.5 (2060ec1f9f, 2020-04-08)">
  <metadata
     id="metadata14">
    <rdf:RDF>
      <cc:Work
         rdf:about="">
        <dc:format>image/svg+xml</dc:format>
        <dc:type
           rdf:resource="http://purl.org/dc/dcmitype/StillImage" />
      </cc:Work>
    </rdf:RDF>
  </metadata>
  <defs
     id="defs12" />
  <sodipodi:namedview
     pagecolor="#ffffff"
     bordercolor="#666666"
     borderopacity="1"
     objecttolerance="10"
     gridtolerance="10"
     guidetolerance="10"
     inkscape:pageopacity="0"
     inkscape:pageshadow="2"
     inkscape:window-width="1048"
     inkscape:window-height="803"
     id="namedview10"
     showgrid="false"
     inkscape:zoom="20.85965"
     inkscape:cx="5.5801953"
     inkscape:cy="12.230562"
     inkscape:window-x="512"
     inkscape:window-y="380"
     inkscape:window-maximized="0"
     inkscape:current-layer="g6" />
  <path
     d="M0 0h512v512H0z"
     fill="#000000"
     fill-opacity="0"
     style="--darkreader-inline-fill: #000000;"
     data-darkreader-inline-fill=""
     id="path2" />
  <g
     class=""
     style="stroke:#000000;stroke-opacity:1;opacity:1;stroke-width:4.192;stroke-miterlimit:4;stroke-dasharray:none"
     transform="translate(0,0)"
     id="g6">
    <path
       style="fill:none;stroke:#76df76;stroke-opacity:1;stroke-width:10.592;stroke-miterlimit:4;stroke-dasharray:none"
       d="m 383.215,71.94 a 96,96 0 0 0 -96,96 96,96 0 0 0 8.484,39.17 c 2.492,-0.108 4.994,-0.166 7.503,-0.17 h 0.011 c 34.226,0.002 65.356,9.18 88.478,24.636 10.776,7.204 19.885,15.916 26.54,25.738 a 96,96 0 0 0 60.982,-89.373 96,96 0 0 0 -96,-96 z"
       id="path823" />
    <path
       style="fill:#76df76;fill-opacity:1"
       d="m 154.662,179.845 c -47.352,0.003 -85.174,36.46 -85.178,81.19 v 0.007 c 0.005,7.39 1.07,14.74 3.162,21.86 l 2.788,9.477 -9.698,1.894 c -13.05,2.55 -23.76,7.818 -30.85,14.125 -7.087,6.303 -10.49,13.255 -10.5,20.293 v 0.003 c 0.002,8.806 5.325,17.41 15.807,24.398 10.482,6.988 25.778,11.695 42.832,11.697 8.47,-0.017 16.842,-1.206 24.483,-3.443 l 4.605,-1.35 3.686,3.072 c 17.088,14.243 49.872,24.26 85.2,24.27 14.3,-0.024 28.434,-1.62 41.37,-4.64 l 7.33,-1.714 2.982,6.91 c 8.13,18.84 35.242,34.145 67.123,34.17 20.066,-0.003 38.075,-5.86 50.593,-14.742 12.492,-8.862 19.286,-20.168 19.317,-32.172 -0.012,-0.335 -0.028,-0.67 -0.05,-1.007 l -0.7,-10.11 10.12,0.495 c 3.337,0.164 6.696,0.252 10.06,0.26 23.21,-0.002 44.206,-3.737 58.597,-9.3 7.198,-2.783 12.702,-6.056 15.924,-9 3.216,-2.94 3.942,-4.99 3.945,-6.514 -0.004,-1.374 -0.584,-3.16 -3.215,-5.794 -2.637,-2.64 -7.215,-5.67 -13.352,-8.352 -12.275,-5.363 -30.592,-9.408 -51.623,-10.412 l -10.803,-0.516 2.47,-10.53 c 0.747,-3.18 1.134,-6.365 1.18,-9.555 -0.023,-18.135 -10.99,-35.177 -30.578,-48.27 -19.606,-13.107 -47.5,-21.598 -78.475,-21.6 -20.483,0.028 -40.557,3.834 -57.793,10.85 l -8.252,3.36 -3.443,-8.216 c -12.866,-30.71 -44.097,-51.07 -79.06,-51.09 h -0.005 z"
       id="path4" />
    <path
       style="fill:none;stroke:#76df76;stroke-width:9.6;stroke-linecap:butt;stroke-linejoin:miter;stroke-opacity:1;stroke-miterlimit:4;stroke-dasharray:none"
       d="M 247.32204,154.0339 C 45.559322,119.32204 45.559322,119.32204 45.559322,119.32204"
       id="path829"
       inkscape:connector-curvature="0" />
    <path
       style="fill:none;stroke:#76df76;stroke-width:9.6;stroke-linecap:butt;stroke-linejoin:miter;stroke-opacity:1;stroke-miterlimit:4;stroke-dasharray:none"
       d="M 264.67796,112.81356 C 62.915254,28.20339 62.915254,28.20339 62.915254,28.20339"
       id="path831"
       inkscape:connector-curvature="0" />
    <path
       style="fill:none;stroke:#76df76;stroke-width:9.60000038;stroke-linecap:butt;stroke-linejoin:miter;stroke-miterlimit:4;stroke-dasharray:none;stroke-opacity:1"
       d="M 289.68163,87.809896 C 183.37654,16.216676 190.91525,10.847458 190.91525,10.847458"
       id="path833"
       inkscape:connector-curvature="0"
       sodipodi:nodetypes="cc" />
    <path
       style="fill:none;stroke:#76df76;stroke-width:9.60000038;stroke-linecap:butt;stroke-linejoin:miter;stroke-miterlimit:4;stroke-dasharray:none;stroke-opacity:1"
       d="M 318.01662,62.411427 277.54074,7.910935"
       id="path835"
       inkscape:connector-curvature="0"
       sodipodi:nodetypes="cc" />
    <path
       style="fill:none;stroke:#76df76;stroke-width:9.6;stroke-linecap:butt;stroke-linejoin:miter;stroke-opacity:1;stroke-miterlimit:4;stroke-dasharray:none"
       d="M 386.1695,49.898304 C 384,6.5084746 384,6.5084746 384,6.5084746"
       id="path837"
       inkscape:connector-curvature="0" />
    <path
       style="fill:none;stroke:#76df76;stroke-width:9.6;stroke-linecap:butt;stroke-linejoin:miter;stroke-opacity:1;stroke-miterlimit:4;stroke-dasharray:none"
       d="M 455.59322,73.76271 C 496.81357,17.355932 496.81357,17.355932 496.81357,17.355932"
       id="path839"
       inkscape:connector-curvature="0" />
    <path
       style="fill:none;stroke:#76df76;stroke-width:9.6;stroke-linecap:butt;stroke-linejoin:miter;stroke-opacity:1;stroke-miterlimit:4;stroke-dasharray:none"
       d="m 459.93219,251.66102 c 41.22035,47.72881 43.38986,47.72881 43.38986,47.72881"
       id="path841"
       inkscape:connector-curvature="0" />
    <path
       style="fill:none;stroke:#76df76;stroke-width:9.6;stroke-linecap:butt;stroke-linejoin:miter;stroke-opacity:1;stroke-miterlimit:4;stroke-dasharray:none"
       d="m 492.47459,114.98305 c 10.84746,-6.50847 10.84746,-6.50847 10.84746,-6.50847"
       id="path843"
       inkscape:connector-curvature="0" />
    <path
       style="fill:none;stroke:#76df76;stroke-width:9.60000038;stroke-linecap:butt;stroke-linejoin:miter;stroke-miterlimit:4;stroke-dasharray:none;stroke-opacity:1"
       d="m 489.36582,185.24476 17.64173,4.60218"
       id="path845"
       inkscape:connector-curvature="0"
       sodipodi:nodetypes="cc" />
    <path
       style="fill:none;stroke:#76df76;stroke-width:9.60000038;stroke-linecap:butt;stroke-linejoin:miter;stroke-miterlimit:4;stroke-dasharray:none;stroke-opacity:1"
       d="m 479.39443,217.46006 26.84607,15.34062"
       id="path847"
       inkscape:connector-curvature="0"
       sodipodi:nodetypes="cc" />
    <path
       style="fill:none;stroke:#76df76;stroke-width:9.6;stroke-linecap:butt;stroke-linejoin:miter;stroke-opacity:1;stroke-miterlimit:4;stroke-dasharray:none"
       d="M 422.63411,54.849472 C 437.20771,8.827608 437.20771,8.827608 437.20771,8.827608"
       id="path849"
       inkscape:connector-curvature="0" />
    <path
       style="fill:none;stroke:#76df76;stroke-width:9.6;stroke-linecap:butt;stroke-linejoin:miter;stroke-opacity:1;stroke-miterlimit:4;stroke-dasharray:none"
       d="m 493.20099,149.96133 11.50547,-0.76704"
       id="path853"
       inkscape:connector-curvature="0" />
    <path
       style="fill:none;stroke:#76df76;stroke-width:9.60000038;stroke-linecap:butt;stroke-linejoin:miter;stroke-miterlimit:4;stroke-dasharray:none;stroke-opacity:1"
       d="M 348.99914,49.480257 335.19258,9.5946392"
       id="path855"
       inkscape:connector-curvature="0"
       sodipodi:nodetypes="cc" />
    <path
       style="fill:none;stroke:#76df76;stroke-width:9.6;stroke-linecap:butt;stroke-linejoin:miter;stroke-opacity:1;stroke-miterlimit:4;stroke-dasharray:none"
       d="M 480.16147,90.899933 504.70646,70.190096"
       id="path857"
       inkscape:connector-curvature="0" />
  </g>
</svg>
