<svg style="height: 16px; width: 16px;" width="16px" height="16px" xmlns="http://www.w3.org/2000/svg" viewBox="0 0 512 512"><path d="M0 0h512v512H0z" fill="#000000" fill-opacity="0" style="--darkreader-inline-fill: #000000;" data-darkreader-inline-fill=""></path><g class="" style="" transform="translate(0,0)"><path d="M494 18.02l-101 .103V119h101zm-119 .12l-238 .247V119h238zm-256 .266L18 18.51V119h101zM18 137v110h229V137zm247 0v110h229V137zM18 265v110h101V265zm119 0v110h238V265zm256 0v110h101V265zM18 393v100.98l229-.236V393zm247 0v100.727l229-.237V393z" fill="#76df76" fill-opacity="1" style="--darkreader-inline-fill: #8b8104;" data-darkreader-inline-fill=""></path></g></svg>
