<?xml version="1.0" encoding="UTF-8" standalone="no"?>
<svg
   xmlns:dc="http://purl.org/dc/elements/1.1/"
   xmlns:cc="http://creativecommons.org/ns#"
   xmlns:rdf="http://www.w3.org/1999/02/22-rdf-syntax-ns#"
   xmlns:svg="http://www.w3.org/2000/svg"
   xmlns="http://www.w3.org/2000/svg"
   xmlns:sodipodi="http://sodipodi.sourceforge.net/DTD/sodipodi-0.dtd"
   xmlns:inkscape="http://www.inkscape.org/namespaces/inkscape"
   style="height: 24px; width: 32px;"
   width="32px"
   height="32px"
   viewBox="0 0 512 512"
   version="1.1"
   id="svg8"
   sodipodi:docname="pause-button.svg"
   inkscape:version="0.92.5 (2060ec1f9f, 2020-04-08)">
  <metadata
     id="metadata14">
    <rdf:RDF>
      <cc:Work
         rdf:about="">
        <dc:format>image/svg+xml</dc:format>
        <dc:type
           rdf:resource="http://purl.org/dc/dcmitype/StillImage" />
      </cc:Work>
    </rdf:RDF>
  </metadata>
  <defs
     id="defs12" />
  <sodipodi:namedview
     pagecolor="#ffffff"
     bordercolor="#666666"
     borderopacity="1"
     objecttolerance="10"
     gridtolerance="10"
     guidetolerance="10"
     inkscape:pageopacity="0"
     inkscape:pageshadow="2"
     inkscape:window-width="800"
     inkscape:window-height="480"
     id="namedview10"
     showgrid="false"
     inkscape:zoom="7.375"
     inkscape:cx="16"
     inkscape:cy="16"
     inkscape:window-x="42"
     inkscape:window-y="0"
     inkscape:window-maximized="0"
     inkscape:current-layer="svg8" />
  <path
     d="M0 0h512v512H0z"
     fill="#000000"
     fill-opacity="0"
     style="--darkreader-inline-fill: #000000;"
     data-darkreader-inline-fill=""
     id="path2" />
  <g
     class=""
     style="opacity:0.95;stroke:#000000;stroke-width:4.19199991;stroke-miterlimit:4;stroke-dasharray:none;stroke-opacity:1"
     transform="matrix(1.0010571,0,0,0.71716716,-0.27062948,71.484393)"
     id="g6">
    <path
       d="M 120.16,45 A 20.162,20.162 0 0 0 100,65.16 V 446.84 A 20.162,20.162 0 0 0 120.16,467 h 65.68 A 20.162,20.162 0 0 0 206,446.84 V 65.16 A 20.162,20.162 0 0 0 185.84,45 Z m 206,0 A 20.162,20.162 0 0 0 306,65.16 V 446.84 A 20.162,20.162 0 0 0 326.16,467 h 65.68 A 20.162,20.162 0 0 0 412,446.84 V 65.16 A 20.162,20.162 0 0 0 391.84,45 Z"
       style="fill:#76df76;fill-opacity:1"
       data-darkreader-inline-fill=""
       id="path4"
       inkscape:connector-curvature="0" />
  </g>
</svg>
