<svg style="height: 24px; width: 32px;" width="32px" height="24px" xmlns="http://www.w3.org/2000/svg" viewBox="0 0 512 512"><path d="M0 0h512v512H0z" fill="#000000" fill-opacity="0" style="--darkreader-inline-fill: #000000;" data-darkreader-inline-fill=""></path><g class="" style="" transform="translate(0,0)"><path d="M120.16 45A20.162 20.162 0 0 0 100 65.16v381.68A20.162 20.162 0 0 0 120.16 467h65.68A20.162 20.162 0 0 0 206 446.84V65.16A20.162 20.162 0 0 0 185.84 45h-65.68zm206 0A20.162 20.162 0 0 0 306 65.16v381.68A20.162 20.162 0 0 0 326.16 467h65.68A20.162 20.162 0 0 0 412 446.84V65.16A20.162 20.162 0 0 0 391.84 45h-65.68z" fill="#76df76" fill-opacity="1" style="--darkreader-inline-fill: #8b8104;" data-darkreader-inline-fill=""></path></g></svg>
