<svg style="height: 24px; width: 24px;" width="24px" height="24px" xmlns="http://www.w3.org/2000/svg" viewBox="0 0 512 512"><path d="M0 0h512v512H0z" fill="#000000" fill-opacity="0" style="--darkreader-inline-fill: #000000;" data-darkreader-inline-fill=""></path><g class="" style="stroke:#000000;stroke-opacity:1;opacity:0.95;stroke-width:4.192;stroke-miterlimit:4;stroke-dasharray:none" transform="translate(0,0)"><path d="M256 17.108c-75.73 0-137.122 61.392-137.122 137.122.055 23.25 6.022 46.107 11.58 56.262L256 494.892l119.982-274.244h-.063c11.27-20.324 17.188-43.18 17.202-66.418C393.122 78.5 331.73 17.108 256 17.108zm0 68.56a68.56 68.56 0 0 1 68.56 68.562A68.56 68.56 0 0 1 256 222.79a68.56 68.56 0 0 1-68.56-68.56A68.56 68.56 0 0 1 256 85.67z" fill="#76df76" fill-opacity="1" style="--darkreader-inline-fill: #8b8104;" data-darkreader-inline-fill=""></path></g></svg>
