<?xml version="1.0" encoding="UTF-8" standalone="no"?>
<svg
   xmlns:dc="http://purl.org/dc/elements/1.1/"
   xmlns:cc="http://creativecommons.org/ns#"
   xmlns:rdf="http://www.w3.org/1999/02/22-rdf-syntax-ns#"
   xmlns:svg="http://www.w3.org/2000/svg"
   xmlns="http://www.w3.org/2000/svg"
   xmlns:sodipodi="http://sodipodi.sourceforge.net/DTD/sodipodi-0.dtd"
   xmlns:inkscape="http://www.inkscape.org/namespaces/inkscape"
   style="height: 150px; width: 150px;"
   viewBox="0 0 150 150"
   version="1.1"
   id="svg6"
   sodipodi:docname="sound-waves.svg"
   inkscape:version="0.92.5 (2060ec1f9f, 2020-04-08)">
  <metadata
     id="metadata12">
    <rdf:RDF>
      <cc:Work
         rdf:about="">
        <dc:format>image/svg+xml</dc:format>
        <dc:type
           rdf:resource="http://purl.org/dc/dcmitype/StillImage" />
      </cc:Work>
    </rdf:RDF>
  </metadata>
  <defs
     id="defs10" />
  <sodipodi:namedview
     pagecolor="#ffffff"
     bordercolor="#666666"
     borderopacity="1"
     objecttolerance="10"
     gridtolerance="10"
     guidetolerance="10"
     inkscape:pageopacity="0"
     inkscape:pageshadow="2"
     inkscape:window-width="1331"
     inkscape:window-height="750"
     id="namedview8"
     showgrid="false"
     inkscape:zoom="1.84375"
     inkscape:cx="-8.1963326"
     inkscape:cy="183.23839"
     inkscape:window-x="40"
     inkscape:window-y="0"
     inkscape:window-maximized="0"
     inkscape:current-layer="svg6" />
  <g
     class=""
     transform="matrix(0.25,0,0,0.25,11.414015,15.582851)"
     id="g4">
    <path
       d="M 468.53,236.03 H 486 v 39.94 h -17.47 z m -34.426,51.634 h 17.47 v -63.328 h -17.47 z m -33.848,32.756 h 17.47 V 191.58 h -17.47 z m -32.177,25.276 h 17.47 V 167.483 h -17.47 v 178.17 z m -34.448,-43.521 h 17.47 v -92.35 h -17.47 z m -34.994,69.879 h 17.47 v -236.06 h -17.525 v 236.06 z M 264.2,405.9 h 17.47 V 106.1 H 264.2 Z m -33.848,-46.284 h 17.47 V 152.383 h -17.47 v 207.234 z m -35.016,-58.85 h 17.47 v -87.35 h -17.47 z m -33.847,-20.823 h 17.47 V 231.98 h -17.47 v 48.042 z m -33.848,25.66 h 17.47 v -99.24 h -17.47 v 99.272 z m -33.302,48.04 h 17.47 V 152.678 H 94.34 v 201 z M 60.492,322.941 h 17.47 V 187.333 H 60.492 V 322.975 Z M 26,287.664 H 43.47 V 224.336 H 26 Z"
       style="fill:#76df76;fill-opacity:1;stroke:#000000;stroke-width:8;stroke-opacity:1"
       data-darkreader-inline-fill=""
       data-darkreader-inline-stroke=""
       id="path2"
       inkscape:connector-curvature="0" />
  </g>
</svg>
