<?xml version="1.0" encoding="UTF-8" standalone="no"?>
<svg
   version="1.1"
   id="Layer_1"
   width="16px"
   height="16px"
   x="0px"
   y="0px"
   viewBox="0 0 115.28 122.88"
   style="enable-background:new 0 0 115.28 122.88"
   xml:space="preserve"
   sodipodi:docname="obj-file-icon.svg"
   inkscape:version="1.2.1 (9c6d41e410, 2022-07-14)"
   xmlns:inkscape="http://www.inkscape.org/namespaces/inkscape"
   xmlns:sodipodi="http://sodipodi.sourceforge.net/DTD/sodipodi-0.dtd"
   xmlns="http://www.w3.org/2000/svg"
   xmlns:svg="http://www.w3.org/2000/svg"><defs
     id="defs6372" /><sodipodi:namedview
     id="namedview6370"
     pagecolor="#ffffff"
     bordercolor="#666666"
     borderopacity="1.0"
     inkscape:showpageshadow="2"
     inkscape:pageopacity="0.0"
     inkscape:pagecheckerboard="0"
     inkscape:deskcolor="#d1d1d1"
     showgrid="false"
     inkscape:zoom="14.75"
     inkscape:cx="5.0847458"
     inkscape:cy="8"
     inkscape:window-width="2560"
     inkscape:window-height="1377"
     inkscape:window-x="-8"
     inkscape:window-y="-8"
     inkscape:window-maximized="1"
     inkscape:current-layer="Layer_1" /><style
     type="text/css"
     id="style6363">.st0{fill-rule:evenodd;clip-rule:evenodd;}</style><g
     id="g6367"><path
       class="st0"
       d="M25.38,57h64.88V37.34H69.59c-2.17,0-5.19-1.17-6.62-2.6c-1.43-1.43-2.3-4.01-2.3-6.17V7.64l0,0H8.15 c-0.18,0-0.32,0.09-0.41,0.18C7.59,7.92,7.55,8.05,7.55,8.24v106.45c0,0.14,0.09,0.32,0.18,0.41c0.09,0.14,0.28,0.18,0.41,0.18 c22.78,0,58.09,0,81.51,0c0.18,0,0.17-0.09,0.27-0.18c0.14-0.09,0.33-0.28,0.33-0.41v-11.16H25.38c-4.14,0-7.56-3.4-7.56-7.56 V64.55C17.82,60.4,21.22,57,25.38,57L25.38,57z M30.83,80.07c0-3.79,1.05-6.74,3.17-8.85c2.11-2.11,5.06-3.17,8.83-3.17 c3.87,0,6.85,1.04,8.94,3.11c2.09,2.08,3.14,4.99,3.14,8.72c0,2.71-0.45,4.94-1.37,6.67c-0.91,1.74-2.24,3.09-3.96,4.06 c-1.73,0.97-3.88,1.45-6.46,1.45c-2.62,0-4.79-0.42-6.51-1.25c-1.71-0.84-3.11-2.16-4.17-3.96C31.37,85.05,30.83,82.79,30.83,80.07 L30.83,80.07z M38,80.09c0,2.34,0.44,4.03,1.31,5.05c0.88,1.02,2.07,1.54,3.57,1.54c1.54,0,2.74-0.5,3.59-1.5 c0.85-1.01,1.27-2.8,1.27-5.4c0-2.18-0.44-3.78-1.32-4.79c-0.89-1.01-2.08-1.51-3.6-1.51c-1.45,0-2.62,0.51-3.49,1.54 C38.44,76.03,38,77.72,38,80.09L38,80.09z M58.32,68.44h13.45c2.24,0,3.96,0.56,5.16,1.67c1.2,1.11,1.8,2.48,1.8,4.12 c0,1.37-0.43,2.55-1.29,3.53c-0.57,0.66-1.41,1.17-2.5,1.56c1.67,0.4,2.89,1.09,3.68,2.07c0.78,0.98,1.18,2.21,1.18,3.68 c0,1.21-0.28,2.29-0.84,3.25c-0.56,0.96-1.33,1.72-2.3,2.28c-0.61,0.35-1.51,0.6-2.73,0.76c-1.62,0.21-2.69,0.32-3.22,0.32H58.32 V68.44L58.32,68.44z M65.56,77.56h3.13c1.12,0,1.9-0.19,2.34-0.58c0.44-0.39,0.66-0.95,0.66-1.68c0-0.68-0.22-1.21-0.66-1.58 c-0.44-0.38-1.21-0.57-2.29-0.57h-3.18V77.56L65.56,77.56z M65.56,86.67h3.66c1.24,0,2.11-0.22,2.62-0.66 c0.51-0.44,0.76-1.02,0.76-1.76c0-0.69-0.25-1.24-0.75-1.65c-0.5-0.42-1.38-0.63-2.64-0.63h-3.64V86.67L65.56,86.67z M92.71,68.44 h7.2v12.62c0,2.65-0.23,4.67-0.7,6.05c-0.47,1.38-1.42,2.55-2.84,3.51c-1.42,0.96-3.24,1.44-5.46,1.44c-2.35,0-4.16-0.32-5.45-0.95 c-1.29-0.63-2.29-1.56-2.99-2.78c-0.7-1.22-1.12-2.73-1.24-4.52l6.85-0.93c0.01,1.02,0.1,1.77,0.27,2.27 c0.17,0.5,0.45,0.89,0.86,1.2c0.28,0.2,0.66,0.3,1.17,0.3c0.81,0,1.4-0.3,1.77-0.89c0.37-0.59,0.56-1.6,0.56-3.01V68.44 L92.71,68.44z M97.79,57h9.93c4.16,0,7.56,3.41,7.56,7.56v31.42c0,4.15-3.41,7.56-7.56,7.56h-9.93v13.55c0,1.61-0.65,3.04-1.7,4.1 c-1.06,1.06-2.49,1.7-4.1,1.7c-29.44,0-56.59,0-86.18,0c-1.61,0-3.04-0.64-4.1-1.7c-1.06-1.06-1.7-2.49-1.7-4.1V5.85 c0-1.61,0.65-3.04,1.7-4.1c1.06-1.06,2.53-1.7,4.1-1.7h58.72C64.66,0,64.8,0,64.94,0c0.64,0,1.29,0.28,1.75,0.69h0.09 c0.09,0.05,0.14,0.09,0.23,0.18l29.99,30.36c0.51,0.51,0.88,1.2,0.88,1.98c0,0.23-0.05,0.41-0.09,0.65V57L97.79,57z M67.52,27.97 V8.94l21.43,21.7H70.19c-0.74,0-1.38-0.32-1.89-0.78C67.84,29.4,67.52,28.71,67.52,27.97L67.52,27.97z"
       id="path6365"
       style="fill:#aa9e0f;fill-opacity:1" /></g></svg>
