<?xml version="1.0" encoding="UTF-8" standalone="no"?>
<svg
   shape-rendering="geometricPrecision"
   text-rendering="geometricPrecision"
   image-rendering="optimizeQuality"
   fill-rule="evenodd"
   clip-rule="evenodd"
   viewBox="0 0 398 512.188"
   width="16px"
   height="16px"
   version="1.1"
   id="svg4"
   sodipodi:docname="obj-file-outline-icon.svg"
   inkscape:version="1.2.1 (9c6d41e410, 2022-07-14)"
   xmlns:inkscape="http://www.inkscape.org/namespaces/inkscape"
   xmlns:sodipodi="http://sodipodi.sourceforge.net/DTD/sodipodi-0.dtd"
   xmlns="http://www.w3.org/2000/svg"
   xmlns:svg="http://www.w3.org/2000/svg">
  <defs
     id="defs8" />
  <sodipodi:namedview
     id="namedview6"
     pagecolor="#ffffff"
     bordercolor="#666666"
     borderopacity="1.0"
     inkscape:showpageshadow="2"
     inkscape:pageopacity="0.0"
     inkscape:pagecheckerboard="0"
     inkscape:deskcolor="#d1d1d1"
     showgrid="false"
     inkscape:zoom="14.75"
     inkscape:cx="3.8983051"
     inkscape:cy="8"
     inkscape:window-width="2560"
     inkscape:window-height="1377"
     inkscape:window-x="-8"
     inkscape:window-y="-8"
     inkscape:window-maximized="1"
     inkscape:current-layer="svg4" />
  <path
     fill-rule="nonzero"
     d="M59.904 0H277.45a9.13 9.13 0 017.303 3.641l110.781 119.851a9.069 9.069 0 012.419 6.179H398v322.613c0 16.401-6.783 31.384-17.651 42.253-10.87 10.87-25.855 17.651-42.255 17.651H59.904c-16.421 0-31.422-6.756-42.294-17.628C6.763 483.714 0 468.75 0 452.284V59.906C0 43.422 6.739 28.44 17.59 17.59 28.44 6.739 43.42 0 59.904 0zM18.289 339.085h361.422V147.794c-30.513 0-71.711 4.559-96.489-16.605-12.663-10.821-19.766-26.266-21.174-45.471a9.129 9.129 0 01-.086-1.254V18.289H59.904c-11.435 0-21.839 4.686-29.384 12.231-7.545 7.544-12.231 17.949-12.231 29.386v279.179zm361.422 18.495H18.289v94.704c0 11.413 4.705 21.802 12.251 29.347 7.566 7.566 17.984 12.268 29.364 12.268h278.19c11.355 0 21.757-4.723 29.325-12.292 7.569-7.569 12.292-17.969 12.292-29.323V357.58zm-114.116-76.805l-2.786-22.291h11.563c2.879 0 4.713-.395 5.503-1.185.79-.789 1.185-1.787 1.185-2.995v-38.313h-11.563v-22.292h39.427v64.088c0 7.523-1.858 13.236-5.573 17.137-3.716 3.901-9.055 5.851-16.022 5.851h-21.734zm-81.431 0v-87.076h45.14c8.358 0 14.325 1.627 17.901 4.878 3.576 3.25 5.365 7.987 5.365 14.211 0 6.222-1.137 11.028-3.414 14.418-2.275 3.391-5.317 5.596-9.124 6.619v.835c11.237 1.951 16.857 9.613 16.857 22.989 0 6.966-1.859 12.562-5.573 16.788-3.716 4.226-9.426 6.338-17.137 6.338h-50.015zm38.73-34.689h-10.866v14.209h10.728c3.899 0 5.85-2.368 5.85-7.105s-1.903-7.104-5.712-7.104zm-2.089-33.298h-8.777v12.955h8.637c3.53 0 5.296-2.158 5.296-6.477 0-4.32-1.72-6.478-5.156-6.478zm-131.726 24.52c0-15.883 2.971-27.47 8.917-34.761 5.944-7.292 16.672-10.937 32.182-10.937 15.511 0 26.239 3.645 32.184 10.937 5.944 7.291 8.916 18.878 8.916 34.761 0 7.895-.626 14.536-1.88 19.922-1.254 5.387-3.414 10.079-6.479 14.071-3.064 3.995-7.292 6.919-12.679 8.777-5.386 1.859-12.075 2.786-20.062 2.786-7.987 0-14.675-.927-20.062-2.786-5.387-1.858-9.612-4.782-12.679-8.777-3.064-3.992-5.223-8.684-6.477-14.071-1.253-5.386-1.881-12.027-1.881-19.922zm29.954-14.489v36.222h11.564c3.807 0 6.571-.441 8.289-1.323 1.718-.883 2.577-2.903 2.577-6.06v-36.224h-11.704c-3.714 0-6.431.442-8.149 1.325-1.718.88-2.577 2.9-2.577 6.06zm1.43 213.082c-5.207 0-9.43-4.224-9.43-9.431 0-5.207 4.223-9.431 9.43-9.431H273.73c5.207 0 9.431 4.224 9.431 9.431 0 5.207-4.224 9.431-9.431 9.431H120.463zM280.25 25.577v58.847c1.041 14.194 6.017 25.376 14.832 32.907 19.07 16.285 57.587 12.174 81.231 12.174L280.25 25.577z"
     id="path2"
     style="fill:#aa9e0f;fill-opacity:1" />
</svg>
